<svg xmlns="http://www.w3.org/2000/svg" xmlns:xlink="http://www.w3.org/1999/xlink" width="200" zoomAndPan="magnify" viewBox="0 0 150 149.999998" height="200" preserveAspectRatio="xMidYMid meet" version="1.0"><defs><g/><clipPath id="5d7e2e1161"><path d="M 4 52.242188 L 24 52.242188 L 24 64 L 4 64 Z M 4 52.242188 " clip-rule="nonzero"/></clipPath><clipPath id="38b5fdd045"><path d="M 0 65 L 27.75 65 L 27.75 78 L 0 78 Z M 0 65 " clip-rule="nonzero"/></clipPath></defs><g fill="#ffffff" fill-opacity="1"><g transform="translate(40.368624, 72.985943)"><g><path d="M 8.234375 -12.8125 C 9.609375 -12.8125 10.648438 -12.453125 11.359375 -11.734375 C 12.078125 -11.023438 12.4375 -9.976562 12.4375 -8.59375 L 12.4375 -4.203125 C 12.4375 -2.828125 12.078125 -1.78125 11.359375 -1.0625 C 10.648438 -0.351562 9.609375 0 8.234375 0 L 1.09375 0 L 1.09375 -12.8125 Z M 9.15625 -8.59375 C 9.15625 -9.695312 8.601562 -10.25 7.5 -10.25 L 4.390625 -10.25 L 4.390625 -2.5625 L 7.5 -2.5625 C 8.601562 -2.5625 9.15625 -3.109375 9.15625 -4.203125 Z M 9.15625 -8.59375 "/></g></g></g><g fill="#ffffff" fill-opacity="1"><g transform="translate(57.198236, 72.985943)"><g><path d="M 7.140625 0 L 0.546875 0 L 0.546875 -2.5625 L 2.203125 -2.5625 L 2.203125 -10.25 L 0.546875 -10.25 L 0.546875 -12.8125 L 7.140625 -12.8125 L 7.140625 -10.25 L 5.484375 -10.25 L 5.484375 -2.5625 L 7.140625 -2.5625 Z M 7.140625 0 "/></g></g></g><g fill="#ffffff" fill-opacity="1"><g transform="translate(68.540087, 72.985943)"><g><path d="M 12.078125 -0.28125 C 9.222656 0.03125 6.597656 0.1875 4.203125 0.1875 C 3.015625 0.1875 2.140625 -0.09375 1.578125 -0.65625 C 1.015625 -1.21875 0.734375 -2.097656 0.734375 -3.296875 L 0.734375 -9.15625 C 0.734375 -10.425781 1.019531 -11.351562 1.59375 -11.9375 C 2.175781 -12.519531 3.109375 -12.8125 4.390625 -12.8125 L 10.984375 -12.8125 L 10.984375 -10.25 L 5.125 -10.25 C 4.394531 -10.25 4.03125 -9.882812 4.03125 -9.15625 L 4.03125 -3.296875 C 4.03125 -3.015625 4.109375 -2.789062 4.265625 -2.625 C 4.429688 -2.457031 4.65625 -2.375 4.9375 -2.375 C 6.34375 -2.375 7.625 -2.40625 8.78125 -2.46875 L 8.78125 -5.125 L 6.40625 -5.125 L 6.40625 -7.3125 L 12.078125 -7.3125 Z M 12.078125 -0.28125 "/></g></g></g><g fill="#ffffff" fill-opacity="1"><g transform="translate(85.00385, 72.985943)"><g><path d="M 7.140625 0 L 0.546875 0 L 0.546875 -2.5625 L 2.203125 -2.5625 L 2.203125 -10.25 L 0.546875 -10.25 L 0.546875 -12.8125 L 7.140625 -12.8125 L 7.140625 -10.25 L 5.484375 -10.25 L 5.484375 -2.5625 L 7.140625 -2.5625 Z M 7.140625 0 "/></g></g></g><g fill="#ffffff" fill-opacity="1"><g transform="translate(96.3457, 72.985943)"><g><path d="M 7.3125 0 L 4.03125 0 L 4.03125 -10.25 L 0.1875 -10.25 L 0.1875 -12.8125 L 11.15625 -12.8125 L 11.15625 -10.25 L 7.3125 -10.25 Z M 7.3125 0 "/></g></g></g><g fill="#ffffff" fill-opacity="1"><g transform="translate(111.346057, 72.985943)"><g><path d="M 3.390625 0 L -0.1875 0 L 4.671875 -12.8125 L 8.328125 -12.8125 L 13.171875 0 L 9.609375 0 L 8.78125 -2.28125 L 4.203125 -2.28125 Z M 5.03125 -4.671875 L 7.953125 -4.671875 L 6.5 -8.96875 Z M 5.03125 -4.671875 "/></g></g></g><g fill="#ffffff" fill-opacity="1"><g transform="translate(127.99275, 72.985943)"><g><path d="M 4.390625 -2.5625 L 11.0625 -2.5625 L 11.0625 0 L 1.09375 0 L 1.09375 -12.8125 L 4.390625 -12.8125 Z M 4.390625 -2.5625 "/></g></g></g><path stroke-linecap="round" transform="matrix(0, 0.75, -0.75, 0, 33.777275, 53.19992)" fill="none" stroke-linejoin="miter" d="M 0.999064 0.999908 L 48.124067 0.999908 " stroke="#ff00ff" stroke-width="2" stroke-opacity="1" stroke-miterlimit="4"/><path fill="#ff00ff" d="M 23.601562 81.289062 C 23.601562 81.871094 23.40625 82.257812 23.019531 82.644531 L 15.28125 90.382812 C 14.507812 91.15625 13.347656 91.15625 12.574219 90.382812 L 4.835938 82.644531 C 4.0625 81.871094 4.0625 80.710938 4.835938 79.9375 C 5.609375 79.160156 6.769531 79.160156 7.546875 79.9375 L 13.929688 86.320312 L 20.3125 79.9375 C 21.085938 79.160156 22.246094 79.160156 23.019531 79.9375 C 23.40625 80.324219 23.601562 80.710938 23.601562 81.289062 Z M 23.601562 81.289062 " fill-opacity="1" fill-rule="nonzero"/><g clip-path="url(#5d7e2e1161)"><path fill="#ff00ff" d="M 23.601562 61.945312 C 23.601562 62.527344 23.40625 62.914062 23.019531 63.300781 C 22.246094 64.074219 21.085938 64.074219 20.3125 63.300781 L 13.929688 56.917969 L 7.546875 63.300781 C 6.769531 64.074219 5.609375 64.074219 4.835938 63.300781 C 4.0625 62.527344 4.0625 61.367188 4.835938 60.589844 L 12.574219 52.855469 C 13.347656 52.082031 14.507812 52.082031 15.28125 52.855469 L 23.019531 60.589844 C 23.40625 60.980469 23.601562 61.367188 23.601562 61.945312 Z M 23.601562 61.945312 " fill-opacity="1" fill-rule="nonzero"/></g><g clip-path="url(#38b5fdd045)"><path fill="#ff00ff" d="M 27.46875 75.488281 C 27.46875 75.679688 27.46875 75.875 27.277344 76.066406 C 26.890625 77.035156 25.921875 77.613281 24.761719 77.226562 L 1.546875 69.488281 C 0.582031 69.101562 0 68.136719 0.386719 66.976562 C 0.773438 66.007812 1.742188 65.425781 2.902344 65.816406 L 26.117188 73.550781 C 26.890625 73.9375 27.46875 74.714844 27.46875 75.488281 Z M 27.46875 75.488281 " fill-opacity="1" fill-rule="nonzero"/></g><g fill="#ffffff" fill-opacity="1"><g transform="translate(41.219483, 84.443149)"><g><path d="M 3.3125 0 L 1.828125 0 L 1.828125 -4.640625 L 0.078125 -4.640625 L 0.078125 -5.8125 L 5.0625 -5.8125 L 5.0625 -4.640625 L 3.3125 -4.640625 Z M 3.3125 0 "/></g></g></g><g fill="#ffffff" fill-opacity="1"><g transform="translate(50.909728, 84.443149)"><g><path d="M 5.109375 0 L 0.5 0 L 0.5 -5.8125 L 5.109375 -5.8125 L 5.109375 -4.640625 L 1.984375 -4.640625 L 1.984375 -3.53125 L 4.4375 -3.53125 L 4.4375 -2.359375 L 1.984375 -2.359375 L 1.984375 -1.15625 L 5.109375 -1.15625 Z M 5.109375 0 "/></g></g></g><g fill="#ffffff" fill-opacity="1"><g transform="translate(60.724396, 84.443149)"><g><path d="M 4.984375 -0.078125 C 3.742188 0.0234375 2.71875 0.078125 1.90625 0.078125 C 1.363281 0.078125 0.960938 -0.046875 0.703125 -0.296875 C 0.453125 -0.554688 0.328125 -0.957031 0.328125 -1.5 L 0.328125 -4.15625 C 0.328125 -4.726562 0.457031 -5.144531 0.71875 -5.40625 C 0.988281 -5.675781 1.410156 -5.8125 1.984375 -5.8125 L 4.984375 -5.8125 L 4.984375 -4.640625 L 2.328125 -4.640625 C 1.992188 -4.640625 1.828125 -4.476562 1.828125 -4.15625 L 1.828125 -1.5 C 1.828125 -1.363281 1.863281 -1.257812 1.9375 -1.1875 C 2.007812 -1.113281 2.101562 -1.078125 2.21875 -1.078125 C 2.332031 -1.078125 2.457031 -1.078125 2.59375 -1.078125 C 2.738281 -1.085938 2.882812 -1.09375 3.03125 -1.09375 C 3.1875 -1.101562 3.335938 -1.109375 3.484375 -1.109375 C 3.640625 -1.117188 3.835938 -1.128906 4.078125 -1.140625 C 4.316406 -1.160156 4.617188 -1.179688 4.984375 -1.203125 Z M 4.984375 -0.078125 "/></g></g></g><g fill="#ffffff" fill-opacity="1"><g transform="translate(70.414641, 84.443149)"><g><path d="M 5.5625 0 L 4.0625 0 L 4.0625 -2.359375 L 1.984375 -2.359375 L 1.984375 0 L 0.5 0 L 0.5 -5.8125 L 1.984375 -5.8125 L 1.984375 -3.53125 L 4.0625 -3.53125 L 4.0625 -5.8125 L 5.5625 -5.8125 Z M 5.5625 0 "/></g></g></g><g fill="#ffffff" fill-opacity="1"><g transform="translate(81.017345, 84.443149)"><g><path d="M 5.5625 0 L 3.984375 0 L 1.984375 -3.484375 L 1.984375 0 L 0.5 0 L 0.5 -5.8125 L 2.078125 -5.8125 L 4.0625 -2.328125 L 4.0625 -5.8125 L 5.5625 -5.8125 Z M 5.5625 0 "/></g></g></g><g fill="#ffffff" fill-opacity="1"><g transform="translate(91.620049, 84.443149)"><g><path d="M 4.234375 -4.234375 C 4.234375 -4.566406 4.066406 -4.734375 3.734375 -4.734375 L 2.328125 -4.734375 C 1.992188 -4.734375 1.828125 -4.566406 1.828125 -4.234375 L 1.828125 -1.578125 C 1.828125 -1.242188 1.992188 -1.078125 2.328125 -1.078125 L 3.734375 -1.078125 C 4.066406 -1.078125 4.234375 -1.242188 4.234375 -1.578125 Z M 5.71875 -1.578125 C 5.71875 -0.992188 5.585938 -0.570312 5.328125 -0.3125 C 5.066406 -0.0507812 4.644531 0.078125 4.0625 0.078125 L 1.984375 0.078125 C 1.410156 0.078125 0.988281 -0.0507812 0.71875 -0.3125 C 0.457031 -0.570312 0.328125 -0.992188 0.328125 -1.578125 L 0.328125 -4.234375 C 0.328125 -4.816406 0.457031 -5.238281 0.71875 -5.5 C 0.988281 -5.757812 1.410156 -5.890625 1.984375 -5.890625 L 4.0625 -5.890625 C 4.644531 -5.890625 5.066406 -5.757812 5.328125 -5.5 C 5.585938 -5.238281 5.71875 -4.816406 5.71875 -4.234375 Z M 5.71875 -1.578125 "/></g></g></g><g fill="#ffffff" fill-opacity="1"><g transform="translate(102.222753, 84.443149)"><g><path d="M 1.984375 -1.15625 L 5.015625 -1.15625 L 5.015625 0 L 0.5 0 L 0.5 -5.8125 L 1.984375 -5.8125 Z M 1.984375 -1.15625 "/></g></g></g><g fill="#ffffff" fill-opacity="1"><g transform="translate(111.871521, 84.443149)"><g><path d="M 4.234375 -4.234375 C 4.234375 -4.566406 4.066406 -4.734375 3.734375 -4.734375 L 2.328125 -4.734375 C 1.992188 -4.734375 1.828125 -4.566406 1.828125 -4.234375 L 1.828125 -1.578125 C 1.828125 -1.242188 1.992188 -1.078125 2.328125 -1.078125 L 3.734375 -1.078125 C 4.066406 -1.078125 4.234375 -1.242188 4.234375 -1.578125 Z M 5.71875 -1.578125 C 5.71875 -0.992188 5.585938 -0.570312 5.328125 -0.3125 C 5.066406 -0.0507812 4.644531 0.078125 4.0625 0.078125 L 1.984375 0.078125 C 1.410156 0.078125 0.988281 -0.0507812 0.71875 -0.3125 C 0.457031 -0.570312 0.328125 -0.992188 0.328125 -1.578125 L 0.328125 -4.234375 C 0.328125 -4.816406 0.457031 -5.238281 0.71875 -5.5 C 0.988281 -5.757812 1.410156 -5.890625 1.984375 -5.890625 L 4.0625 -5.890625 C 4.644531 -5.890625 5.066406 -5.757812 5.328125 -5.5 C 5.585938 -5.238281 5.71875 -4.816406 5.71875 -4.234375 Z M 5.71875 -1.578125 "/></g></g></g><g fill="#ffffff" fill-opacity="1"><g transform="translate(122.474225, 84.443149)"><g><path d="M 5.46875 -0.125 C 4.175781 0.0078125 2.988281 0.078125 1.90625 0.078125 C 1.363281 0.078125 0.960938 -0.046875 0.703125 -0.296875 C 0.453125 -0.554688 0.328125 -0.957031 0.328125 -1.5 L 0.328125 -4.15625 C 0.328125 -4.726562 0.457031 -5.144531 0.71875 -5.40625 C 0.988281 -5.675781 1.410156 -5.8125 1.984375 -5.8125 L 4.984375 -5.8125 L 4.984375 -4.640625 L 2.328125 -4.640625 C 1.992188 -4.640625 1.828125 -4.476562 1.828125 -4.15625 L 1.828125 -1.5 C 1.828125 -1.363281 1.863281 -1.257812 1.9375 -1.1875 C 2.007812 -1.113281 2.109375 -1.078125 2.234375 -1.078125 C 2.867188 -1.078125 3.453125 -1.09375 3.984375 -1.125 L 3.984375 -2.328125 L 2.90625 -2.328125 L 2.90625 -3.3125 L 5.46875 -3.3125 Z M 5.46875 -0.125 "/></g></g></g><g fill="#ffffff" fill-opacity="1"><g transform="translate(132.828076, 84.443149)"><g><path d="M -0.171875 -5.8125 L 1.40625 -5.8125 L 2.78125 -2.984375 L 4.15625 -5.8125 L 5.71875 -5.8125 L 3.53125 -1.53125 L 3.53125 0 L 2.03125 0 L 2.03125 -1.53125 Z M -0.171875 -5.8125 "/></g></g></g></svg>