<svg xmlns="http://www.w3.org/2000/svg" xmlns:xlink="http://www.w3.org/1999/xlink" width="500" zoomAndPan="magnify" viewBox="0 0 375 374.999991" height="500" preserveAspectRatio="xMidYMid meet" version="1.0"><defs><g/><clipPath id="0d912a8626"><path d="M 52.300781 139.519531 L 83 139.519531 L 83 237.019531 L 52.300781 237.019531 Z M 52.300781 139.519531 " clip-rule="nonzero"/></clipPath></defs><g clip-path="url(#0d912a8626)"><path fill="#c70dc7" d="M 79.808594 150.515625 L 82.558594 150.515625 L 82.558594 139.519531 L 79.808594 139.519531 C 70.699219 139.519531 63.3125 146.902344 63.3125 156.015625 L 63.3125 175.257812 C 63.3125 176.992188 62.5 178.621094 61.113281 179.660156 L 54.515625 184.609375 C 53.195312 185.597656 52.390625 187.128906 52.320312 188.777344 C 52.253906 190.425781 52.929688 192.019531 54.164062 193.117188 L 61.46875 199.609375 C 62.640625 200.652344 63.3125 202.148438 63.3125 203.71875 L 63.3125 222 C 63.3125 231.109375 70.699219 238.496094 79.808594 238.496094 L 82.558594 238.496094 L 82.558594 227.496094 L 79.808594 227.496094 C 76.773438 227.496094 74.3125 225.035156 74.3125 222 L 74.3125 203.71875 C 74.3125 199.007812 72.296875 194.519531 68.773438 191.386719 L 66.5 189.367188 L 67.714844 188.457031 C 71.867188 185.339844 74.3125 180.453125 74.3125 175.257812 L 74.3125 156.015625 C 74.3125 152.976562 76.773438 150.515625 79.808594 150.515625 Z M 79.808594 150.515625 " fill-opacity="1" fill-rule="evenodd"/></g><g fill="#fff2ec" fill-opacity="1"><g transform="translate(89.79303, 184.202887)"><g><path d="M 19.171875 -5.1875 L 22.984375 -26.078125 L 34.625 -26.078125 L 34.625 0 L 28.71875 0 L 28.71875 -20.90625 L 27.78125 -20.90625 L 23.796875 0 L 13.0625 0 L 9.0625 -20.90625 L 8.140625 -20.90625 L 8.140625 0 L 2.21875 0 L 2.21875 -26.078125 L 13.875 -26.078125 L 17.6875 -5.1875 Z M 19.171875 -5.1875 "/></g></g></g><g fill="#fff2ec" fill-opacity="1"><g transform="translate(126.641115, 184.202887)"><g><path d="M 1.484375 -5.109375 C 1.484375 -6.710938 2.035156 -7.992188 3.140625 -8.953125 C 4.253906 -9.910156 6.191406 -10.585938 8.953125 -10.984375 L 14.84375 -11.796875 C 14.84375 -12.566406 14.539062 -13.164062 13.9375 -13.59375 C 13.332031 -14.03125 12.382812 -14.25 11.09375 -14.25 C 9.914062 -14.25 9.003906 -14.015625 8.359375 -13.546875 C 7.722656 -13.078125 7.40625 -12.410156 7.40625 -11.546875 L 1.84375 -11.546875 C 1.84375 -13.117188 2.25 -14.46875 3.0625 -15.59375 C 3.882812 -16.71875 5 -17.578125 6.40625 -18.171875 C 7.8125 -18.765625 9.375 -19.0625 11.09375 -19.0625 C 12.820312 -19.0625 14.414062 -18.769531 15.875 -18.1875 C 17.332031 -17.601562 18.507812 -16.675781 19.40625 -15.40625 C 20.300781 -14.132812 20.75 -12.476562 20.75 -10.4375 L 20.75 -5.1875 L 23.453125 -5.1875 L 23.453125 0 L 19.34375 0 C 18.457031 0 17.773438 -0.238281 17.296875 -0.71875 C 16.816406 -1.195312 16.578125 -1.882812 16.578125 -2.78125 L 16.578125 -3.140625 L 17.5 -5.359375 L 16.015625 -5.359375 C 15.796875 -4.328125 15.40625 -3.378906 14.84375 -2.515625 C 14.289062 -1.648438 13.5 -0.953125 12.46875 -0.421875 C 11.4375 0.109375 10.039062 0.375 8.28125 0.375 C 6.832031 0.375 5.65625 0.179688 4.75 -0.203125 C 3.851562 -0.585938 3.171875 -1.066406 2.703125 -1.640625 C 2.234375 -2.222656 1.910156 -2.828125 1.734375 -3.453125 C 1.566406 -4.085938 1.484375 -4.640625 1.484375 -5.109375 Z M 7.40625 -6.21875 C 7.40625 -5.675781 7.617188 -5.304688 8.046875 -5.109375 C 8.472656 -4.910156 8.9375 -4.8125 9.4375 -4.8125 C 11.0625 -4.8125 12.367188 -5.132812 13.359375 -5.78125 C 14.347656 -6.4375 14.84375 -7.332031 14.84375 -8.46875 L 10.0625 -7.8125 C 9.175781 -7.6875 8.507812 -7.523438 8.0625 -7.328125 C 7.625 -7.128906 7.40625 -6.757812 7.40625 -6.21875 Z M 7.40625 -6.21875 "/></g></g></g><g fill="#fff2ec" fill-opacity="1"><g transform="translate(150.466579, 184.202887)"><g><path d="M 19.875 -18.6875 L 19.875 -8.875 L 6.65625 -5.734375 L 6.65625 -5.1875 L 19.875 -5.1875 L 19.875 0 L 1.484375 0 L 1.484375 -9.8125 L 14.6875 -12.953125 L 14.6875 -13.5 L 1.484375 -13.5 L 1.484375 -18.6875 Z M 19.875 -18.6875 "/></g></g></g><g fill="#fff2ec" fill-opacity="1"><g transform="translate(171.813311, 184.202887)"><g><path d="M 15.578125 -19.0625 C 17.972656 -19.0625 19.847656 -18.289062 21.203125 -16.75 C 22.554688 -15.207031 23.234375 -12.988281 23.234375 -10.09375 L 23.234375 0 L 17.3125 0 L 17.3125 -9.171875 C 17.3125 -10.878906 17.023438 -12.085938 16.453125 -12.796875 C 15.890625 -13.515625 14.894531 -13.875 13.46875 -13.875 C 12.40625 -13.875 11.472656 -13.65625 10.671875 -13.21875 C 9.867188 -12.789062 9.242188 -12.070312 8.796875 -11.0625 C 8.359375 -10.050781 8.140625 -8.671875 8.140625 -6.921875 L 8.140625 0 L 2.21875 0 L 2.21875 -27.1875 L 8.140625 -27.1875 L 8.140625 -16.421875 L 7.03125 -13.09375 L 8.515625 -13.09375 C 8.878906 -14.769531 9.644531 -16.179688 10.8125 -17.328125 C 11.988281 -18.484375 13.578125 -19.0625 15.578125 -19.0625 Z M 15.578125 -19.0625 "/></g></g></g><g fill="#fff2ec" fill-opacity="1"><g transform="translate(196.896642, 184.202887)"><g><path d="M 1.484375 -9.578125 C 1.484375 -11.554688 1.898438 -13.253906 2.734375 -14.671875 C 3.578125 -16.085938 4.738281 -17.171875 6.21875 -17.921875 C 7.695312 -18.679688 9.398438 -19.0625 11.328125 -19.0625 C 13.273438 -19.0625 14.988281 -18.695312 16.46875 -17.96875 C 17.945312 -17.238281 19.101562 -16.191406 19.9375 -14.828125 C 20.78125 -13.472656 21.203125 -11.847656 21.203125 -9.953125 L 21.203125 -8.109375 L 7.03125 -8.109375 C 7.03125 -7.046875 7.429688 -6.164062 8.234375 -5.46875 C 9.035156 -4.78125 10.273438 -4.4375 11.953125 -4.4375 C 12.984375 -4.4375 13.863281 -4.617188 14.59375 -4.984375 C 15.320312 -5.359375 15.773438 -5.894531 15.953125 -6.59375 L 21.859375 -6.59375 C 21.765625 -5.925781 21.5 -5.191406 21.0625 -4.390625 C 20.632812 -3.585938 20.015625 -2.820312 19.203125 -2.09375 C 18.390625 -1.363281 17.382812 -0.769531 16.1875 -0.3125 C 14.988281 0.144531 13.578125 0.375 11.953125 0.375 C 9.554688 0.375 7.585938 -0.0859375 6.046875 -1.015625 C 4.503906 -1.941406 3.359375 -3.160156 2.609375 -4.671875 C 1.859375 -6.191406 1.484375 -7.828125 1.484375 -9.578125 Z M 7.03125 -11.4375 L 15.65625 -11.4375 C 15.65625 -12.144531 15.34375 -12.789062 14.71875 -13.375 C 14.101562 -13.957031 12.972656 -14.25 11.328125 -14.25 C 9.671875 -14.25 8.539062 -13.957031 7.9375 -13.375 C 7.332031 -12.789062 7.03125 -12.144531 7.03125 -11.4375 Z M 7.03125 -11.4375 "/></g></g></g><g fill="#fff2ec" fill-opacity="1"><g transform="translate(220.241156, 184.202887)"><g><path d="M 8.140625 0 L 2.21875 0 L 2.21875 -15.875 C 2.21875 -16.882812 2.492188 -17.660156 3.046875 -18.203125 C 3.609375 -18.742188 4.394531 -19.003906 5.40625 -18.984375 L 17.65625 -18.6875 L 17.65625 -13.5 L 8.140625 -13.734375 Z M 8.140625 0 "/></g></g></g><g fill="#fff2ec" fill-opacity="1"><g transform="translate(238.269583, 184.202887)"><g/></g></g><g fill="#fff2ec" fill-opacity="1"><g transform="translate(89.79303, 212.502276)"><g><path d="M 3.796875 0 L 0.359375 -10.5 L 1.3125 -10.5 L 2.875 -5.71875 L 4.265625 -1.421875 L 5.828125 -5.71875 L 7.578125 -10.5 L 8.4375 -10.5 L 11.78125 -1.40625 L 13.171875 -5.71875 L 14.71875 -10.5 L 15.671875 -10.5 L 12.21875 0 L 11.375 0 L 8.015625 -9.125 L 6.15625 -4.046875 L 4.671875 0 Z M 3.796875 0 "/></g></g></g><g fill="#fff2ec" fill-opacity="1"><g transform="translate(105.51564, 212.502276)"><g><path d="M 1.6875 0 L 1.6875 -10.5 L 7.875 -10.5 L 7.875 -9.640625 L 2.609375 -9.640625 L 2.609375 -5.78125 L 7.484375 -5.78125 L 7.484375 -4.9375 L 2.609375 -4.9375 L 2.609375 -0.859375 L 8.046875 -0.859375 L 8.046875 0 Z M 1.6875 0 "/></g></g></g><g fill="#fff2ec" fill-opacity="1"><g transform="translate(114.343598, 212.502276)"><g><path d="M 1.6875 0 L 1.6875 -10.5 L 5.6875 -10.5 C 6.65625 -10.5 7.425781 -10.25 8 -9.75 C 8.570312 -9.257812 8.859375 -8.597656 8.859375 -7.765625 C 8.859375 -7.203125 8.71875 -6.710938 8.4375 -6.296875 C 8.15625 -5.890625 7.757812 -5.597656 7.25 -5.421875 C 7.851562 -5.234375 8.320312 -4.921875 8.65625 -4.484375 C 9 -4.046875 9.171875 -3.503906 9.171875 -2.859375 C 9.171875 -1.984375 8.867188 -1.285156 8.265625 -0.765625 C 7.671875 -0.253906 6.863281 0 5.84375 0 Z M 2.609375 -0.859375 L 5.8125 -0.859375 C 6.570312 -0.859375 7.164062 -1.035156 7.59375 -1.390625 C 8.019531 -1.753906 8.234375 -2.253906 8.234375 -2.890625 C 8.234375 -3.546875 8.015625 -4.050781 7.578125 -4.40625 C 7.148438 -4.757812 6.550781 -4.9375 5.78125 -4.9375 L 2.609375 -4.9375 Z M 2.609375 -5.78125 L 5.65625 -5.78125 C 6.375 -5.78125 6.929688 -5.945312 7.328125 -6.28125 C 7.734375 -6.625 7.9375 -7.097656 7.9375 -7.703125 C 7.9375 -8.304688 7.734375 -8.78125 7.328125 -9.125 C 6.929688 -9.46875 6.378906 -9.640625 5.671875 -9.640625 L 2.609375 -9.640625 Z M 2.609375 -5.78125 "/></g></g></g><g fill="#fff2ec" fill-opacity="1"><g transform="translate(124.175774, 212.502276)"><g/></g></g><g fill="#fff2ec" fill-opacity="1"><g transform="translate(127.892698, 212.502276)"><g><path d="M 1.6875 0 L 1.6875 -10.5 L 5.015625 -10.5 C 6.128906 -10.5 7.09375 -10.28125 7.90625 -9.84375 C 8.726562 -9.40625 9.359375 -8.796875 9.796875 -8.015625 C 10.242188 -7.234375 10.46875 -6.3125 10.46875 -5.25 C 10.46875 -4.195312 10.242188 -3.273438 9.796875 -2.484375 C 9.359375 -1.703125 8.726562 -1.09375 7.90625 -0.65625 C 7.09375 -0.21875 6.128906 0 5.015625 0 Z M 2.609375 -0.875 L 5.015625 -0.875 C 5.941406 -0.875 6.742188 -1.050781 7.421875 -1.40625 C 8.097656 -1.769531 8.617188 -2.28125 8.984375 -2.9375 C 9.359375 -3.59375 9.546875 -4.363281 9.546875 -5.25 C 9.546875 -6.132812 9.359375 -6.90625 8.984375 -7.5625 C 8.617188 -8.21875 8.09375 -8.722656 7.40625 -9.078125 C 6.726562 -9.441406 5.921875 -9.625 4.984375 -9.625 L 2.609375 -9.625 Z M 2.609375 -0.875 "/></g></g></g><g fill="#fff2ec" fill-opacity="1"><g transform="translate(139.013882, 212.502276)"><g><path d="M 1.6875 0 L 1.6875 -10.5 L 7.875 -10.5 L 7.875 -9.640625 L 2.609375 -9.640625 L 2.609375 -5.78125 L 7.484375 -5.78125 L 7.484375 -4.9375 L 2.609375 -4.9375 L 2.609375 -0.859375 L 8.046875 -0.859375 L 8.046875 0 Z M 1.6875 0 "/></g></g></g><g fill="#fff2ec" fill-opacity="1"><g transform="translate(147.841843, 212.502276)"><g><path d="M 4.546875 0 L 0.328125 -10.5 L 1.3125 -10.5 L 4.984375 -1.265625 L 6.5625 -5.25 L 8.65625 -10.5 L 9.609375 -10.5 L 5.421875 0 Z M 4.546875 0 "/></g></g></g><g fill="#fff2ec" fill-opacity="1"><g transform="translate(157.479175, 212.502276)"><g><path d="M 1.6875 0 L 1.6875 -10.5 L 7.875 -10.5 L 7.875 -9.640625 L 2.609375 -9.640625 L 2.609375 -5.78125 L 7.484375 -5.78125 L 7.484375 -4.9375 L 2.609375 -4.9375 L 2.609375 -0.859375 L 8.046875 -0.859375 L 8.046875 0 Z M 1.6875 0 "/></g></g></g><g fill="#fff2ec" fill-opacity="1"><g transform="translate(166.307135, 212.502276)"><g><path d="M 1.6875 0 L 1.6875 -10.5 L 2.609375 -10.5 L 2.609375 -0.875 L 7.9375 -0.875 L 7.9375 0 Z M 1.6875 0 "/></g></g></g><g fill="#fff2ec" fill-opacity="1"><g transform="translate(174.445635, 212.502276)"><g><path d="M 6.375 0.1875 C 5.3125 0.1875 4.375 -0.0390625 3.5625 -0.5 C 2.75 -0.957031 2.109375 -1.59375 1.640625 -2.40625 C 1.179688 -3.226562 0.953125 -4.175781 0.953125 -5.25 C 0.953125 -6.320312 1.179688 -7.265625 1.640625 -8.078125 C 2.109375 -8.898438 2.75 -9.539062 3.5625 -10 C 4.375 -10.457031 5.3125 -10.6875 6.375 -10.6875 C 7.445312 -10.6875 8.390625 -10.457031 9.203125 -10 C 10.015625 -9.539062 10.648438 -8.898438 11.109375 -8.078125 C 11.566406 -7.265625 11.796875 -6.320312 11.796875 -5.25 C 11.796875 -4.175781 11.566406 -3.226562 11.109375 -2.40625 C 10.648438 -1.59375 10.015625 -0.957031 9.203125 -0.5 C 8.390625 -0.0390625 7.445312 0.1875 6.375 0.1875 Z M 1.890625 -5.25 C 1.890625 -4.363281 2.078125 -3.578125 2.453125 -2.890625 C 2.835938 -2.203125 3.367188 -1.664062 4.046875 -1.28125 C 4.722656 -0.90625 5.5 -0.71875 6.375 -0.71875 C 7.257812 -0.71875 8.039062 -0.90625 8.71875 -1.28125 C 9.394531 -1.664062 9.921875 -2.203125 10.296875 -2.890625 C 10.679688 -3.578125 10.875 -4.363281 10.875 -5.25 C 10.875 -6.144531 10.679688 -6.929688 10.296875 -7.609375 C 9.921875 -8.296875 9.394531 -8.828125 8.71875 -9.203125 C 8.039062 -9.585938 7.257812 -9.78125 6.375 -9.78125 C 5.5 -9.78125 4.722656 -9.585938 4.046875 -9.203125 C 3.367188 -8.828125 2.835938 -8.296875 2.453125 -7.609375 C 2.078125 -6.929688 1.890625 -6.144531 1.890625 -5.25 Z M 1.890625 -5.25 "/></g></g></g><g fill="#fff2ec" fill-opacity="1"><g transform="translate(186.885797, 212.502276)"><g><path d="M 1.6875 0 L 1.6875 -10.5 L 5.03125 -10.5 C 6.25 -10.5 7.195312 -10.195312 7.875 -9.59375 C 8.550781 -8.988281 8.890625 -8.140625 8.890625 -7.046875 C 8.890625 -5.960938 8.550781 -5.113281 7.875 -4.5 C 7.195312 -3.894531 6.25 -3.59375 5.03125 -3.59375 L 2.609375 -3.59375 L 2.609375 0 Z M 2.609375 -4.4375 L 5.015625 -4.4375 C 6.992188 -4.4375 7.984375 -5.300781 7.984375 -7.03125 C 7.984375 -8.757812 6.992188 -9.625 5.015625 -9.625 L 2.609375 -9.625 Z M 2.609375 -4.4375 "/></g></g></g><g fill="#fff2ec" fill-opacity="1"><g transform="translate(196.178399, 212.502276)"><g><path d="M 1.6875 0 L 1.6875 -10.5 L 2.546875 -10.5 L 6.921875 -3.9375 L 11.28125 -10.5 L 12.125 -10.5 L 12.125 0 L 11.21875 0 L 11.21875 -8.8125 L 7.296875 -2.921875 L 6.546875 -2.921875 L 2.609375 -8.8125 L 2.609375 0 Z M 1.6875 0 "/></g></g></g><g fill="#fff2ec" fill-opacity="1"><g transform="translate(209.682735, 212.502276)"><g><path d="M 1.6875 0 L 1.6875 -10.5 L 7.875 -10.5 L 7.875 -9.640625 L 2.609375 -9.640625 L 2.609375 -5.78125 L 7.484375 -5.78125 L 7.484375 -4.9375 L 2.609375 -4.9375 L 2.609375 -0.859375 L 8.046875 -0.859375 L 8.046875 0 Z M 1.6875 0 "/></g></g></g><g fill="#fff2ec" fill-opacity="1"><g transform="translate(218.510695, 212.502276)"><g><path d="M 1.6875 0 L 1.6875 -10.5 L 2.546875 -10.5 L 8.9375 -1.578125 L 8.9375 -10.5 L 9.84375 -10.5 L 9.84375 0 L 8.984375 0 L 2.59375 -8.9375 L 2.59375 0 Z M 1.6875 0 "/></g></g></g><g fill="#fff2ec" fill-opacity="1"><g transform="translate(229.736799, 212.502276)"><g><path d="M 4.1875 0 L 4.1875 -9.625 L 0.5625 -9.625 L 0.5625 -10.5 L 8.71875 -10.5 L 8.71875 -9.625 L 5.078125 -9.625 L 5.078125 0 Z M 4.1875 0 "/></g></g></g><g fill="#fff2ec" fill-opacity="1"><g transform="translate(238.714643, 212.502276)"><g/></g></g><g fill="#fff2ec" fill-opacity="1"><g transform="translate(242.431569, 212.502276)"><g><path d="M 5.0625 0.1875 C 4.269531 0.1875 3.570312 0.0546875 2.96875 -0.203125 C 2.375 -0.472656 1.910156 -0.859375 1.578125 -1.359375 C 1.253906 -1.859375 1.078125 -2.445312 1.046875 -3.125 L 1.953125 -3.125 C 2.003906 -2.351562 2.304688 -1.75 2.859375 -1.3125 C 3.421875 -0.882812 4.15625 -0.671875 5.0625 -0.671875 C 5.925781 -0.671875 6.609375 -0.847656 7.109375 -1.203125 C 7.609375 -1.554688 7.859375 -2.039062 7.859375 -2.65625 C 7.859375 -3.207031 7.628906 -3.65625 7.171875 -4 C 6.710938 -4.34375 5.953125 -4.628906 4.890625 -4.859375 C 3.597656 -5.160156 2.660156 -5.546875 2.078125 -6.015625 C 1.503906 -6.484375 1.21875 -7.113281 1.21875 -7.90625 C 1.21875 -8.75 1.535156 -9.421875 2.171875 -9.921875 C 2.816406 -10.429688 3.695312 -10.6875 4.8125 -10.6875 C 5.976562 -10.6875 6.890625 -10.40625 7.546875 -9.84375 C 8.210938 -9.289062 8.566406 -8.507812 8.609375 -7.5 L 7.703125 -7.5 C 7.671875 -8.238281 7.398438 -8.8125 6.890625 -9.21875 C 6.390625 -9.625 5.695312 -9.828125 4.8125 -9.828125 C 3.96875 -9.828125 3.304688 -9.648438 2.828125 -9.296875 C 2.359375 -8.953125 2.125 -8.488281 2.125 -7.90625 C 2.125 -7.382812 2.347656 -6.953125 2.796875 -6.609375 C 3.242188 -6.265625 4.015625 -5.96875 5.109375 -5.71875 C 6.441406 -5.40625 7.390625 -5.003906 7.953125 -4.515625 C 8.515625 -4.035156 8.796875 -3.421875 8.796875 -2.671875 C 8.796875 -1.785156 8.457031 -1.085938 7.78125 -0.578125 C 7.113281 -0.0664062 6.207031 0.1875 5.0625 0.1875 Z M 5.0625 0.1875 "/></g></g></g><g fill="#fff2ec" fill-opacity="1"><g transform="translate(251.978974, 212.502276)"><g><path d="M 1.6875 0 L 1.6875 -10.5 L 7.875 -10.5 L 7.875 -9.640625 L 2.609375 -9.640625 L 2.609375 -5.78125 L 7.484375 -5.78125 L 7.484375 -4.9375 L 2.609375 -4.9375 L 2.609375 -0.859375 L 8.046875 -0.859375 L 8.046875 0 Z M 1.6875 0 "/></g></g></g><g fill="#fff2ec" fill-opacity="1"><g transform="translate(260.806934, 212.502276)"><g><path d="M 1.6875 0 L 1.6875 -10.5 L 5.578125 -10.5 C 6.285156 -10.5 6.898438 -10.363281 7.421875 -10.09375 C 7.941406 -9.820312 8.347656 -9.441406 8.640625 -8.953125 C 8.929688 -8.472656 9.078125 -7.898438 9.078125 -7.234375 C 9.078125 -6.359375 8.835938 -5.640625 8.359375 -5.078125 C 7.878906 -4.515625 7.222656 -4.160156 6.390625 -4.015625 L 9.234375 0 L 8.140625 0 L 5.328125 -3.9375 L 2.609375 -3.9375 L 2.609375 0 Z M 2.609375 -4.8125 L 5.484375 -4.8125 C 6.316406 -4.8125 6.96875 -5.023438 7.4375 -5.453125 C 7.90625 -5.890625 8.140625 -6.484375 8.140625 -7.234375 C 8.140625 -7.972656 7.90625 -8.554688 7.4375 -8.984375 C 6.96875 -9.410156 6.316406 -9.625 5.484375 -9.625 L 2.609375 -9.625 Z M 2.609375 -4.8125 "/></g></g></g><g fill="#fff2ec" fill-opacity="1"><g transform="translate(270.759025, 212.502276)"><g><path d="M 4.546875 0 L 0.328125 -10.5 L 1.3125 -10.5 L 4.984375 -1.265625 L 6.5625 -5.25 L 8.65625 -10.5 L 9.609375 -10.5 L 5.421875 0 Z M 4.546875 0 "/></g></g></g><g fill="#fff2ec" fill-opacity="1"><g transform="translate(280.396357, 212.502276)"><g><path d="M 1.6875 0 L 1.6875 -10.5 L 2.609375 -10.5 L 2.609375 0 Z M 1.6875 0 "/></g></g></g><g fill="#fff2ec" fill-opacity="1"><g transform="translate(284.398058, 212.502276)"><g><path d="M 6.28125 0.1875 C 5.25 0.1875 4.332031 -0.0390625 3.53125 -0.5 C 2.738281 -0.96875 2.109375 -1.609375 1.640625 -2.421875 C 1.179688 -3.242188 0.953125 -4.1875 0.953125 -5.25 C 0.953125 -6.320312 1.179688 -7.265625 1.640625 -8.078125 C 2.109375 -8.890625 2.738281 -9.523438 3.53125 -9.984375 C 4.332031 -10.453125 5.25 -10.6875 6.28125 -10.6875 C 7.082031 -10.6875 7.820312 -10.539062 8.5 -10.25 C 9.1875 -9.957031 9.773438 -9.539062 10.265625 -9 C 10.753906 -8.46875 11.113281 -7.832031 11.34375 -7.09375 L 10.375 -7.09375 C 10.082031 -7.925781 9.566406 -8.582031 8.828125 -9.0625 C 8.097656 -9.539062 7.253906 -9.78125 6.296875 -9.78125 C 5.453125 -9.78125 4.695312 -9.585938 4.03125 -9.203125 C 3.363281 -8.828125 2.835938 -8.296875 2.453125 -7.609375 C 2.078125 -6.929688 1.890625 -6.144531 1.890625 -5.25 C 1.890625 -4.363281 2.078125 -3.578125 2.453125 -2.890625 C 2.835938 -2.203125 3.363281 -1.664062 4.03125 -1.28125 C 4.695312 -0.90625 5.453125 -0.71875 6.296875 -0.71875 C 7.273438 -0.71875 8.140625 -0.96875 8.890625 -1.46875 C 9.648438 -1.96875 10.175781 -2.65625 10.46875 -3.53125 L 11.4375 -3.53125 C 11.21875 -2.78125 10.859375 -2.125 10.359375 -1.5625 C 9.859375 -1 9.257812 -0.566406 8.5625 -0.265625 C 7.875 0.0351562 7.113281 0.1875 6.28125 0.1875 Z M 6.28125 0.1875 "/></g></g></g><g fill="#fff2ec" fill-opacity="1"><g transform="translate(296.418543, 212.502276)"><g><path d="M 1.6875 0 L 1.6875 -10.5 L 7.875 -10.5 L 7.875 -9.640625 L 2.609375 -9.640625 L 2.609375 -5.78125 L 7.484375 -5.78125 L 7.484375 -4.9375 L 2.609375 -4.9375 L 2.609375 -0.859375 L 8.046875 -0.859375 L 8.046875 0 Z M 1.6875 0 "/></g></g></g><g fill="#fff2ec" fill-opacity="1"><g transform="translate(305.246491, 212.502276)"><g><path d="M 5.0625 0.1875 C 4.269531 0.1875 3.570312 0.0546875 2.96875 -0.203125 C 2.375 -0.472656 1.910156 -0.859375 1.578125 -1.359375 C 1.253906 -1.859375 1.078125 -2.445312 1.046875 -3.125 L 1.953125 -3.125 C 2.003906 -2.351562 2.304688 -1.75 2.859375 -1.3125 C 3.421875 -0.882812 4.15625 -0.671875 5.0625 -0.671875 C 5.925781 -0.671875 6.609375 -0.847656 7.109375 -1.203125 C 7.609375 -1.554688 7.859375 -2.039062 7.859375 -2.65625 C 7.859375 -3.207031 7.628906 -3.65625 7.171875 -4 C 6.710938 -4.34375 5.953125 -4.628906 4.890625 -4.859375 C 3.597656 -5.160156 2.660156 -5.546875 2.078125 -6.015625 C 1.503906 -6.484375 1.21875 -7.113281 1.21875 -7.90625 C 1.21875 -8.75 1.535156 -9.421875 2.171875 -9.921875 C 2.816406 -10.429688 3.695312 -10.6875 4.8125 -10.6875 C 5.976562 -10.6875 6.890625 -10.40625 7.546875 -9.84375 C 8.210938 -9.289062 8.566406 -8.507812 8.609375 -7.5 L 7.703125 -7.5 C 7.671875 -8.238281 7.398438 -8.8125 6.890625 -9.21875 C 6.390625 -9.625 5.695312 -9.828125 4.8125 -9.828125 C 3.96875 -9.828125 3.304688 -9.648438 2.828125 -9.296875 C 2.359375 -8.953125 2.125 -8.488281 2.125 -7.90625 C 2.125 -7.382812 2.347656 -6.953125 2.796875 -6.609375 C 3.242188 -6.265625 4.015625 -5.96875 5.109375 -5.71875 C 6.441406 -5.40625 7.390625 -5.003906 7.953125 -4.515625 C 8.515625 -4.035156 8.796875 -3.421875 8.796875 -2.671875 C 8.796875 -1.785156 8.457031 -1.085938 7.78125 -0.578125 C 7.113281 -0.0664062 6.207031 0.1875 5.0625 0.1875 Z M 5.0625 0.1875 "/></g></g></g></svg>